<svg width="220" height="220" viewBox="0 0 220 220" fill="none" xmlns="http://www.w3.org/2000/svg">
<path fill-rule="evenodd" clip-rule="evenodd" d="M213.125 138.476C213.125 102.974 193.518 71.7475 163.171 54.78L177.458 29.0675C178.785 26.6752 179.108 23.8537 178.355 21.2235C177.602 18.5933 175.835 16.3699 173.443 15.0425C171.05 13.7151 168.229 13.3924 165.598 14.1453C162.968 14.8983 160.745 16.6652 159.417 19.0575L144.155 46.5162C133.113 42.9944 121.59 41.2176 110 41.25C98.4057 41.2162 86.8773 42.993 75.8312 46.5162L60.5688 19.0575C59.9446 17.815 59.0756 16.7115 58.0141 15.8134C56.9525 14.9153 55.7203 14.2412 54.3916 13.8316C53.0628 13.422 51.6649 13.2853 50.282 13.4298C48.899 13.5742 47.5596 13.9969 46.3442 14.6723C45.1287 15.3478 44.0625 16.262 43.2095 17.3601C42.3565 18.4582 41.7344 19.7175 41.3805 21.0622C41.0267 22.4069 40.9484 23.8092 41.1505 25.1849C41.3525 26.5607 41.8307 27.8813 42.5563 29.0675L56.8287 54.78C26.4825 71.7475 6.875 102.974 6.875 138.462C6.875 149.641 9.19875 160.504 15.3175 170.005C21.4775 179.589 30.305 185.927 39.9987 190.08C58.1213 197.862 82.775 199.375 110 199.375C137.225 199.375 161.879 197.862 179.988 190.094C189.709 185.941 198.522 179.602 204.682 170.019C210.815 160.517 213.125 149.655 213.125 138.476ZM27.5 138.476C27.5 171.875 55 178.75 110 178.75C165 178.75 192.5 171.875 192.5 138.476C192.5 97.2262 158.125 61.875 110 61.875C61.875 61.875 27.5 97.2125 27.5 138.462M144.375 154.674C141.64 154.674 139.017 153.587 137.083 151.653C135.149 149.719 134.062 147.096 134.062 144.361V123.75C134.062 121.015 135.149 118.392 137.083 116.458C139.017 114.524 141.64 113.437 144.375 113.437C147.11 113.437 149.733 114.524 151.667 116.458C153.601 118.392 154.688 121.015 154.688 123.75V144.375C154.688 147.11 153.601 149.733 151.667 151.667C149.733 153.601 147.11 154.687 144.375 154.687M65.3125 144.375C65.3125 147.11 66.399 149.733 68.333 151.667C70.2669 153.601 72.89 154.687 75.625 154.687C78.36 154.687 80.9831 153.601 82.917 151.667C84.851 149.733 85.9375 147.11 85.9375 144.375V123.75C85.9375 121.015 84.851 118.392 82.917 116.458C80.9831 114.524 78.36 113.437 75.625 113.437C72.89 113.437 70.2669 114.524 68.333 116.458C66.399 118.392 65.3125 121.015 65.3125 123.75V144.375Z" fill="#305FD5"/>
</svg>
