<svg width="50" height="50" viewBox="0 0 50 50" fill="none" xmlns="http://www.w3.org/2000/svg">
<path fill-rule="evenodd" clip-rule="evenodd" d="M48.4375 31.4719C48.4375 23.4031 43.9813 16.3063 37.0844 12.45L40.3312 6.60625C40.6329 6.06256 40.7063 5.42129 40.5352 4.82352C40.364 4.22575 39.9624 3.72044 39.4188 3.41875C38.8751 3.11707 38.2338 3.04372 37.636 3.21485C37.0382 3.38598 36.5329 3.78756 36.2313 4.33125L32.7625 10.5719C30.253 9.77147 27.634 9.36765 25 9.375C22.3649 9.36732 19.7448 9.77114 17.2344 10.5719L13.7656 4.33125C13.6238 4.04886 13.4263 3.79807 13.185 3.59396C12.9438 3.38986 12.6637 3.23665 12.3617 3.14355C12.0597 3.05045 11.742 3.01939 11.4277 3.05222C11.1134 3.08506 10.809 3.18112 10.5328 3.33463C10.2565 3.48813 10.0142 3.69592 9.82034 3.94549C9.62647 4.19505 9.48508 4.48125 9.40466 4.78686C9.32424 5.09247 9.30646 5.41119 9.35238 5.72386C9.3983 6.03652 9.50698 6.33667 9.67188 6.60625L12.9156 12.45C6.01875 16.3063 1.5625 23.4031 1.5625 31.4688C1.5625 34.0094 2.09062 36.4781 3.48125 38.6375C4.88125 40.8156 6.8875 42.2563 9.09062 43.2C13.2094 44.9688 18.8125 45.3125 25 45.3125C31.1875 45.3125 36.7906 44.9688 40.9062 43.2031C43.1156 42.2594 45.1187 40.8188 46.5187 38.6406C47.9125 36.4813 48.4375 34.0125 48.4375 31.4719ZM6.25 31.4719C6.25 39.0625 12.5 40.625 25 40.625C37.5 40.625 43.75 39.0625 43.75 31.4719C43.75 22.0969 35.9375 14.0625 25 14.0625C14.0625 14.0625 6.25 22.0938 6.25 31.4688M32.8125 35.1531C32.1909 35.1531 31.5948 34.9062 31.1552 34.4667C30.7157 34.0271 30.4688 33.431 30.4688 32.8094V28.125C30.4688 27.5034 30.7157 26.9073 31.1552 26.4677C31.5948 26.0282 32.1909 25.7813 32.8125 25.7813C33.4341 25.7813 34.0302 26.0282 34.4698 26.4677C34.9093 26.9073 35.1562 27.5034 35.1562 28.125V32.8125C35.1562 33.4341 34.9093 34.0302 34.4698 34.4698C34.0302 34.9093 33.4341 35.1563 32.8125 35.1563M14.8438 32.8125C14.8438 33.4341 15.0907 34.0302 15.5302 34.4698C15.9698 34.9093 16.5659 35.1563 17.1875 35.1563C17.8091 35.1563 18.4052 34.9093 18.8448 34.4698C19.2843 34.0302 19.5312 33.4341 19.5312 32.8125V28.125C19.5312 27.5034 19.2843 26.9073 18.8448 26.4677C18.4052 26.0282 17.8091 25.7813 17.1875 25.7813C16.5659 25.7813 15.9698 26.0282 15.5302 26.4677C15.0907 26.9073 14.8438 27.5034 14.8438 28.125V32.8125Z" fill="#305FD5"/>
</svg>
