<svg width="28" height="20" viewBox="0 0 28 20" fill="none" xmlns="http://www.w3.org/2000/svg">
<path d="M25.5713 8.7025C26.1638 9.4775 26.1638 10.5238 25.5713 11.2975C23.705 13.7338 19.2275 18.75 14 18.75C8.77251 18.75 4.29501 13.7338 2.42876 11.2975C2.14008 10.9266 1.98334 10.47 1.98334 10C1.98334 9.52999 2.14008 9.07341 2.42876 8.7025C4.29501 6.26625 8.77251 1.25 14 1.25C19.2275 1.25 23.705 6.26625 25.5713 8.7025Z" stroke="#F5F7FC" stroke-opacity="0.7" stroke-width="2.5" stroke-linecap="round" stroke-linejoin="round"/>
<path d="M14 13.75C16.0711 13.75 17.75 12.0711 17.75 10C17.75 7.92893 16.0711 6.25 14 6.25C11.9289 6.25 10.25 7.92893 10.25 10C10.25 12.0711 11.9289 13.75 14 13.75Z" stroke="#F5F7FC" stroke-opacity="0.7" stroke-width="2.5" stroke-linecap="round" stroke-linejoin="round"/>
</svg>
