<svg width="40" height="40" viewBox="0 0 40 40" fill="none" xmlns="http://www.w3.org/2000/svg">
<path d="M28.3333 26.6667L35 20M35 20L28.3333 13.3334M35 20H11.6667M21.6667 26.6667V28.3334C21.6667 29.6594 21.1399 30.9312 20.2022 31.8689C19.2645 32.8066 17.9927 33.3334 16.6667 33.3334H10C8.67392 33.3334 7.40215 32.8066 6.46447 31.8689C5.52678 30.9312 5 29.6594 5 28.3334V11.6667C5 10.3406 5.52678 9.06884 6.46447 8.13115C7.40215 7.19347 8.67392 6.66669 10 6.66669H16.6667C17.9927 6.66669 19.2645 7.19347 20.2022 8.13115C21.1399 9.06884 21.6667 10.3406 21.6667 11.6667V13.3334" stroke="#5D5D5D" stroke-width="2.5" stroke-linecap="round" stroke-linejoin="round"/>
</svg>
