<svg width="31" height="31" viewBox="0 0 31 31" fill="none" xmlns="http://www.w3.org/2000/svg">
<path d="M4.04546 2.09635C2.89458 1.52091 1.61874 2.6156 2.01205 3.84107L4.78074 12.4465C4.83517 12.6156 4.93509 12.7666 5.06956 12.8828C5.20403 12.999 5.36787 13.0759 5.54314 13.1052L17.0412 15.0224C17.5808 15.1125 17.5808 15.8875 17.0412 15.9776L5.54411 17.8938C5.36866 17.9229 5.20462 17.9998 5.06996 18.116C4.93531 18.2322 4.83525 18.3832 4.78074 18.5525L2.01205 27.1608C1.61777 28.3863 2.89361 29.481 4.04546 28.9055L28.2584 16.801C29.3298 16.2653 29.3298 14.7376 28.2584 14.2009L4.04546 2.09635Z" fill="#305FD5"/>
</svg>
