<svg width="40" height="40" viewBox="0 0 40 40" fill="none" xmlns="http://www.w3.org/2000/svg">
<path d="M20 25C22.7614 25 25 22.7614 25 20C25 17.2386 22.7614 15 20 15C17.2386 15 15 17.2386 15 20C15 22.7614 17.2386 25 20 25Z" stroke="#5D5D5D" stroke-width="1.875"/>
<path d="M22.9417 3.58665C22.33 3.33331 21.5534 3.33331 20 3.33331C18.4467 3.33331 17.67 3.33331 17.0584 3.58665C16.6537 3.75417 16.2859 3.99981 15.9762 4.30952C15.6665 4.61923 15.4209 4.98695 15.2534 5.39165C15.1 5.76331 15.0384 6.19831 15.015 6.82998C15.0042 7.28653 14.8777 7.73286 14.6474 8.12724C14.4172 8.52161 14.0906 8.85113 13.6984 9.08498C13.2997 9.30793 12.851 9.4261 12.3942 9.42843C11.9375 9.43076 11.4876 9.31718 11.0867 9.09831C10.5267 8.80165 10.1217 8.63831 9.72002 8.58498C8.84388 8.46976 7.95785 8.70716 7.25669 9.24498C6.73335 9.64998 6.34335 10.3216 5.56669 11.6666C4.79002 13.0116 4.40002 13.6833 4.31502 14.3416C4.25774 14.7757 4.28655 15.2169 4.3998 15.6398C4.51304 16.0628 4.7085 16.4593 4.97502 16.8066C5.22169 17.1266 5.56669 17.395 6.10169 17.7316C6.89002 18.2266 7.39669 19.07 7.39669 20C7.39669 20.93 6.89002 21.7733 6.10169 22.2666C5.56669 22.605 5.22002 22.8733 4.97502 23.1933C4.7085 23.5407 4.51304 23.9372 4.3998 24.3602C4.28655 24.7831 4.25774 25.2242 4.31502 25.6583C4.40169 26.315 4.79002 26.9883 5.56502 28.3333C6.34335 29.6783 6.73169 30.35 7.25669 30.755C7.60408 31.0215 8.00058 31.217 8.42353 31.3302C8.84648 31.4434 9.2876 31.4723 9.72169 31.415C10.1217 31.3616 10.5267 31.1983 11.0867 30.9016C11.4876 30.6828 11.9375 30.5692 12.3942 30.5715C12.851 30.5739 13.2997 30.692 13.6984 30.915C14.5034 31.3816 14.9817 32.24 15.015 33.17C15.0384 33.8033 15.0984 34.2366 15.2534 34.6083C15.4209 35.013 15.6665 35.3807 15.9762 35.6904C16.2859 36.0002 16.6537 36.2458 17.0584 36.4133C17.67 36.6666 18.4467 36.6666 20 36.6666C21.5534 36.6666 22.33 36.6666 22.9417 36.4133C23.3464 36.2458 23.7141 36.0002 24.0238 35.6904C24.3335 35.3807 24.5792 35.013 24.7467 34.6083C24.9 34.2366 24.9617 33.8033 24.985 33.17C25.0184 32.24 25.4967 31.38 26.3017 30.915C26.7003 30.692 27.149 30.5739 27.6058 30.5715C28.0626 30.5692 28.5124 30.6828 28.9134 30.9016C29.4734 31.1983 29.8784 31.3616 30.2784 31.415C30.7124 31.4723 31.1536 31.4434 31.5765 31.3302C31.9995 31.217 32.396 31.0215 32.7434 30.755C33.2684 30.3516 33.6567 29.6783 34.4334 28.3333C35.21 26.9883 35.6 26.3166 35.685 25.6583C35.7423 25.2242 35.7135 24.7831 35.6002 24.3602C35.487 23.9372 35.2915 23.5407 35.025 23.1933C34.7784 22.8733 34.4334 22.605 33.8984 22.2683C33.5082 22.0306 33.1848 21.6979 32.9583 21.3012C32.7318 20.9044 32.6097 20.4568 32.6034 20C32.6034 19.07 33.11 18.2266 33.8984 17.7333C34.4334 17.395 34.78 17.1266 35.025 16.8066C35.2915 16.4593 35.487 16.0628 35.6002 15.6398C35.7135 15.2169 35.7423 14.7757 35.685 14.3416C35.5984 13.685 35.21 13.0116 34.435 11.6666C33.6567 10.3216 33.2684 9.64998 32.7434 9.24498C32.396 8.97846 31.9995 8.783 31.5765 8.66976C31.1536 8.55651 30.7124 8.5277 30.2784 8.58498C29.8784 8.63831 29.4734 8.80165 28.9117 9.09831C28.511 9.31689 28.0614 9.4303 27.605 9.42797C27.1485 9.42564 26.7001 9.30763 26.3017 9.08498C25.9094 8.85113 25.5829 8.52161 25.3526 8.12724C25.1223 7.73286 24.9959 7.28653 24.985 6.82998C24.9617 6.19665 24.9017 5.76331 24.7467 5.39165C24.5792 4.98695 24.3335 4.61923 24.0238 4.30952C23.7141 3.99981 23.3464 3.75417 22.9417 3.58665Z" stroke="#5D5D5D" stroke-width="1.875"/>
</svg>
